<svg xmlns="http://www.w3.org/2000/svg" viewBox="0 0 512 512">
  <!-- Background -->
  <rect width="512" height="512" rx="110" fill="#3b82f6"/>
  <!-- Left post -->
  <rect x="72" y="116" width="36" height="320" rx="16" fill="white"/>
  <!-- Right post -->
  <rect x="404" y="116" width="36" height="320" rx="16" fill="white"/>
  <!-- Top shelf -->
  <rect x="64" y="116" width="384" height="42" rx="16" fill="white"/>
  <!-- Middle shelf -->
  <rect x="64" y="256" width="384" height="42" rx="16" fill="white"/>
  <!-- Bottom shelf -->
  <rect x="64" y="396" width="384" height="42" rx="16" fill="white"/>
  <!-- Items on top shelf -->
  <rect x="120" y="60" width="48" height="58" rx="10" fill="white" opacity="0.7"/>
  <rect x="180" y="70" width="64" height="48" rx="10" fill="white" opacity="0.5"/>
  <rect x="260" y="64" width="44" height="54" rx="10" fill="white" opacity="0.6"/>
  <rect x="316" y="72" width="76" height="46" rx="10" fill="white" opacity="0.45"/>
  <!-- Items on middle shelf -->
  <rect x="120" y="196" width="70" height="62" rx="10" fill="white" opacity="0.6"/>
  <rect x="204" y="208" width="48" height="50" rx="10" fill="white" opacity="0.45"/>
  <rect x="266" y="200" width="58" height="58" rx="10" fill="white" opacity="0.55"/>
  <rect x="338" y="204" width="54" height="54" rx="10" fill="white" opacity="0.4"/>
</svg>
